<svg xmlns="http://www.w3.org/2000/svg" width="36.45" height="36.45" viewBox="0 0 36.45 36.45"><defs><style>.a{fill:#fff;}.b{fill:#ff5e5e;stroke:#ff5e5e;}.b,.c{stroke-linecap:round;stroke-linejoin:round;}.c{fill:none;stroke:#fff;stroke-miterlimit:10;}.d,.e{stroke:none;}.e{fill:#e6e6e6;}</style></defs><g class="a"><path class="d" d="M 18.22508239746094 35.95015716552734 C 13.4905424118042 35.95015716552734 9.039381980895996 34.10642623901367 5.69155216217041 30.75859642028809 C 2.343732357025146 27.41077613830566 0.500002384185791 22.95961761474609 0.500002384185791 18.22507667541504 C 0.500002384185791 13.4905366897583 2.343732357025146 9.039376258850098 5.69155216217041 5.691556453704834 C 9.039381980895996 2.343726634979248 13.4905424118042 0.4999966621398926 18.22508239746094 0.4999966621398926 C 22.95962333679199 0.4999966621398926 27.41078186035156 2.343726634979248 30.75860214233398 5.691556453704834 C 34.1064338684082 9.039376258850098 35.95016098022461 13.4905366897583 35.95016098022461 18.22507667541504 C 35.95016098022461 22.95961761474609 34.1064338684082 27.41077613830566 30.75860214233398 30.75859642028809 C 27.41078186035156 34.10642623901367 22.95962333679199 35.95015716552734 18.22508239746094 35.95015716552734 Z"/><path class="e" d="M 18.22508239746094 0.9999961853027344 C 13.62409210205078 0.9999961853027344 9.298492431640625 2.791717529296875 6.045112609863281 6.045106887817383 C 2.791721343994141 9.298496246337891 1.000003814697266 13.62409591674805 1.000003814697266 18.22507667541504 C 1.000003814697266 22.82605743408203 2.791721343994141 27.15165710449219 6.045112609863281 30.4050464630127 C 9.298492431640625 33.6584358215332 13.62409210205078 35.45015716552734 18.22508239746094 35.45015716552734 C 22.8260612487793 35.45015716552734 27.15166282653809 33.6584358215332 30.40505218505859 30.4050464630127 C 33.65844345092773 27.15165710449219 35.45016098022461 22.82605743408203 35.45016098022461 18.22507667541504 C 35.45016098022461 13.62409591674805 33.65844345092773 9.298496246337891 30.40505218505859 6.045106887817383 C 27.15166282653809 2.791717529296875 22.8260612487793 0.9999961853027344 18.22508239746094 0.9999961853027344 M 18.22508239746094 -3.814697265625e-06 C 28.29051208496094 -3.814697265625e-06 36.45016098022461 8.159646987915039 36.45016098022461 18.22507667541504 C 36.45016098022461 28.29050636291504 28.29051208496094 36.45015716552734 18.22508239746094 36.45015716552734 C 8.159643173217773 36.45015716552734 3.814697265625e-06 28.29050636291504 3.814697265625e-06 18.22507667541504 C 3.814697265625e-06 8.159646987915039 8.159643173217773 -3.814697265625e-06 18.22508239746094 -3.814697265625e-06 Z"/></g><path class="b" d="M2866.906,1389.242c-2.135-3.784-7.013-2.795-7.594.676-.635,3.786,3.756,7.838,7.594,10.108,3.838-2.27,8.366-6.3,7.594-10.108-.7-3.448-5.459-4.46-7.594-.676" transform="translate(-2848.384 -1373.893)"/><path class="c" d="M0,0A1.979,1.979,0,0,1,1.98,1.98a.689.689,0,0,1,0,.076" transform="translate(22.775 15.285) rotate(11)"/></svg>