<svg xmlns="http://www.w3.org/2000/svg" width="24.498" height="34.328" viewBox="0 0 24.498 34.328"><defs><style>.a{fill:none;stroke:#276047;}</style></defs><path class="a" d="M107.944,77.276c-7.232-4.925-3.959-9.716-3.959-9.716C96.954,71.713,95.4,78.053,97.12,86.068c-2.533-2.107-2.9-4.6-2.817-7.894-3.225,3.54-3.805,7.287-3.592,11.343a11.726,11.726,0,0,0,23.448-.134C114.407,84.083,112.217,80.184,107.944,77.276Zm-4.735,20.889a7.98,7.98,0,0,1-4.539-1.4,9.51,9.51,0,0,0,.959.049,10.627,10.627,0,0,0,10.44-10.742q0-.492-.047-.984a8.484,8.484,0,0,1,1.385,4.627,8.336,8.336,0,0,1-8.214,8.453h.018Z" transform="translate(-90.179 -67.13)"/></svg>