<svg xmlns="http://www.w3.org/2000/svg" width="46.391" height="33.137" viewBox="0 0 46.391 33.137"><defs><style>.a{fill:#f0ffe8;}.b{fill:#95de3d;}.c{fill:#ffdd6e;}.d{fill:rgba(255,255,255,0);}.d,.f{stroke:#276047;stroke-miterlimit:10;}.e{fill:#ff5924;}.f{fill:rgba(0,0,0,0);stroke-linecap:round;stroke-linejoin:round;}</style></defs><g transform="translate(-30.927 -22.091)"><g transform="translate(30.927 22.091)"><ellipse class="a" cx="14.359" cy="14.359" rx="14.359" ry="14.359" transform="translate(17.673 4.418)"/><ellipse class="b" cx="2.761" cy="2.761" rx="2.761" ry="2.761" transform="translate(0 22.091)"/><ellipse class="c" cx="2.761" cy="2.761" rx="2.761" ry="2.761" transform="translate(40.868)"/></g><g transform="translate(38.659 23.195)"><ellipse class="d" cx="14.911" cy="14.911" rx="14.911" ry="14.911"/><ellipse class="e" cx="0.728" cy="0.728" rx="0.728" ry="0.728" transform="translate(14.183 25.954)"/><path class="e" d="M.728,0A.728.728,0,1,1,0,.728.728.728,0,0,1,.728,0Z" transform="translate(25.954 14.183)"/><ellipse class="e" cx="0.728" cy="0.728" rx="0.728" ry="0.728" transform="translate(14.183 2.412)"/><ellipse class="e" cx="0.728" cy="0.728" rx="0.728" ry="0.728" transform="translate(2.412 14.183)"/><path class="f" d="M306,319.981v7.959h8.247" transform="translate(-291.089 -313.028)"/></g></g></svg>