<svg xmlns="http://www.w3.org/2000/svg" width="64" height="38.607" viewBox="0 0 64 38.607"><defs><style>.a{fill:#f0ffe8;}.b{fill:#95de3d;}.c{fill:#ffdd6e;}.d{fill:none;stroke:#24b345;stroke-linecap:round;stroke-miterlimit:10;stroke-width:1.5px;}</style></defs><g transform="translate(-765.34 -578.302)"><g transform="translate(765.652 579.066)"><circle class="a" cx="15.5" cy="15.5" r="15.5" transform="translate(24.689 6.842)"/><ellipse class="b" cx="2.5" cy="2" rx="2.5" ry="2" transform="translate(-0.311 31.842)"/><ellipse class="c" cx="2.5" cy="2" rx="2.5" ry="2" transform="translate(58.689 -0.158)"/></g><path class="d" d="M814.251,602.408a20.9,20.9,0,0,0-2.646-7.974c-1.8-3.529-4.514-8.864-7.879-11.965-3.905-3.589-7.742-3.7-10.277-3.169-6.346,1.345-9.935,4.094-11.3,8.667a17.374,17.374,0,0,0-.514,5.062c0,.891-.008,1.739-.077,2.569a29.057,29.057,0,0,1-.925,4.685c-.163.668-.334,1.336-.488,2a16.027,16.027,0,0,0-.137,7.323,7.461,7.461,0,0,0,5.772,5.55,16.2,16.2,0,0,0,3.015.291,21.766,21.766,0,0,0,7.785-1.739,19.515,19.515,0,0,1,5.516-1.456c.505-.034,1.019-.06,1.533-.086,2.526-.111,5.139-.223,7.3-1.756A8.947,8.947,0,0,0,814.251,602.408Z" transform="translate(-2.01 0)"/><line class="d" x2="1.285" y2="1.285" transform="translate(783.935 605.56)"/><line class="d" x1="1.285" y2="1.285" transform="translate(789.931 605.56)"/><line class="d" x2="1.285" y2="1.285" transform="translate(785.648 609.842)"/><circle class="d" cx="6.423" cy="6.423" r="6.423" transform="translate(786.077 586.289)"/></g></svg>